<svg xmlns="http://www.w3.org/2000/svg" height="20" viewBox="0 96 960 960" width="20"><path d="M808 386.923v434.462q0 35.04-23.787 58.828Q760.425 904 725.385 904h-490.77q-35.04 0-58.828-23.787Q152 856.425 152 821.385v-490.77q0-35.04 23.787-58.828Q199.575 248 234.615 248h434.462L808 386.923Zm-58 23.52L645.557 306H234.615q-10.769 0-17.692 6.923T210 330.615v490.77q0 10.769 6.923 17.692T234.615 846h490.77q10.769 0 17.692-6.923T750 821.385V410.443ZM480.118 759.539q33.959 0 57.921-24.079Q562 711.38 562 677.421T537.921 619.5q-24.079-23.962-58.039-23.962-33.959 0-57.921 24.08Q398 643.697 398 677.656q0 33.96 24.079 57.921 24.079 23.962 58.039 23.962Zm-199.349-250.77h304.924v-132H280.769v132ZM210 423.443V846 306v117.443Z"/></svg>